<?xml version="1.0" encoding="UTF-8" standalone="no"?>
<!DOCTYPE svg PUBLIC "-//W3C//DTD SVG 1.1//EN" "http://www.w3.org/Graphics/SVG/1.1/DTD/svg11.dtd">
<svg xmlns="http://www.w3.org/2000/svg" xmlns:xl="http://www.w3.org/1999/xlink" version="1.1" viewBox="57 12 127 174" width="127pt" height="174pt" xmlns:dc="http://purl.org/dc/elements/1.1/"><metadata> Produced by OmniGraffle 6.6.2 <dc:date>2024-07-19 06:15:52 +0000</dc:date></metadata><defs/><g stroke="none" stroke-opacity="1" stroke-dasharray="none" fill="none" fill-opacity="1"><title>Canvas 1</title><g><title>Layer 1</title><path d="M 157.45076 137.773816 C 157.89488 137.03602 158.32594 136.28948 158.74362 135.53451 L 157.45076 137.773816 Z M 75.033747 167.0827 C 75.861346 167.32073 76.69402 167.54388 77.53137 167.75193 L 75.033747 167.0827 Z M 163.68445 83.327636 L 165.16073 82.93207 C 157.07714 52.686896 129.48608 30.411962 96.69234 30.412046 C 96.43723 30.412045 96.18243 30.413392 95.92795 30.416081 L 95.92796 50.26015 C 96.182303 50.256416 96.437103 50.254543 96.69234 50.254543 C 119.052404 50.254486 138.05309 64.637435 144.94732 84.656325 L 143.642184 85.00603 C 143.71162 85.250744 143.77938 85.496377 143.84544 85.74292 C 149.9566 108.549856 139.60671 131.88944 120.07858 143.14749 L 130.002295 160.33587 C 156.34869 145.14707 170.66654 114.12481 163.68445 83.32763 Z" fill="yellow"/></g></g></svg>
